<svg xmlns="http://www.w3.org/2000/svg" xmlns:xlink="http://www.w3.org/1999/xlink" viewBox="0 0 353.03 116.22"><defs><style>.cls-1{fill:none;}.cls-2{clip-path:url(#clip-path);}.cls-3{fill:url(#linear-gradient);}.cls-4{fill:#fff;}</style><clipPath id="clip-path"><path class="cls-1" d="M311.88,14.24l-17,22.1-17-22.1H244.55l33.66,43.87-38.37,50h8.73l38.37-50L258.59,21.16h16l20.37,26.55,25.69-33.47ZM350,8.11h-8.74l-38.36,50,28.35,36.95h-16L294.92,68.51,269.23,102H278l17-22.1,17,22.1H345.3L311.63,58.11Z"/></clipPath><linearGradient id="linear-gradient" x1="236.81" x2="353.03" y2="116.22" gradientUnits="userSpaceOnUse"><stop offset="0" stop-color="#00fcb6"/><stop offset="1" stop-color="#24bdff"/></linearGradient></defs><title>Asset 6</title><g id="Layer_2" data-name="Layer 2"><g id="Layer_1-2" data-name="Layer 1"><g class="cls-2"><rect class="cls-3" x="236.81" width="116.22" height="116.22"/></g><path class="cls-4" d="M23.69,76.63h-.26q-3.38,4.9-10.1,4.9-6.31,0-9.82-4.31T0,64.95q0-8,3.52-12.36a11.85,11.85,0,0,1,9.8-4.4q6.54,0,10,4.75h.38l-.21-2.32-.12-2.26V35.28h4.87V80.94h-4Zm-9.74.82q5,0,7.23-2.71T23.42,66v-1q0-6.84-2.27-9.76t-7.26-2.92A7.46,7.46,0,0,0,7.32,55.6Q5,58.93,5,65t2.26,9.3A7.65,7.65,0,0,0,13.94,77.45Z"/><path class="cls-4" d="M48.77,40.06a3.24,3.24,0,0,1,.82-2.45,3,3,0,0,1,4.08,0,3.18,3.18,0,0,1,.85,2.44,3.23,3.23,0,0,1-.85,2.45,2.84,2.84,0,0,1-2,.81,2.81,2.81,0,0,1-2.05-.81A3.3,3.3,0,0,1,48.77,40.06Zm5.28,40.88H49.18V48.78h4.87Z"/><path class="cls-4" d="M101.25,48.78v3.08l-6,.7A10.46,10.46,0,0,1,97.41,59a9.51,9.51,0,0,1-3.23,7.54q-3.23,2.82-8.86,2.82a14.76,14.76,0,0,1-2.7-.23q-3.11,1.64-3.11,4.14a2.1,2.1,0,0,0,1.09,2,7.93,7.93,0,0,0,3.73.63H90q5.22,0,8,2.2a7.65,7.65,0,0,1,2.8,6.4,9.13,9.13,0,0,1-4.29,8.14q-4.29,2.8-12.5,2.8-6.31,0-9.73-2.35A7.58,7.58,0,0,1,70.9,86.4a7.45,7.45,0,0,1,1.88-5.08,9.56,9.56,0,0,1,5.28-2.91A5.1,5.1,0,0,1,76,76.69,4.58,4.58,0,0,1,75.16,74a5.18,5.18,0,0,1,.94-3.08,9.87,9.87,0,0,1,3-2.55A8.69,8.69,0,0,1,75,64.83a10.26,10.26,0,0,1-1.57-5.64q0-5.28,3.17-8.14t9-2.86a16.33,16.33,0,0,1,4.55.59ZM75.6,86.34a4.37,4.37,0,0,0,2.2,4,12.15,12.15,0,0,0,6.31,1.35q6.13,0,9.08-1.83a5.62,5.62,0,0,0,2.95-5,3.94,3.94,0,0,0-1.61-3.62q-1.61-1-6.08-1H82.62a7.69,7.69,0,0,0-5.17,1.58A5.66,5.66,0,0,0,75.6,86.34Zm2.64-27.27a6.55,6.55,0,0,0,1.91,5.11,7.62,7.62,0,0,0,5.31,1.73q7.13,0,7.13-6.93,0-7.25-7.22-7.25a7.15,7.15,0,0,0-5.28,1.85A7.45,7.45,0,0,0,78.24,59.08Z"/><path class="cls-4" d="M118.54,40.06a3.24,3.24,0,0,1,.82-2.45,3,3,0,0,1,4.08,0,3.18,3.18,0,0,1,.85,2.44,3.23,3.23,0,0,1-.85,2.45,2.84,2.84,0,0,1-2,.81,2.81,2.81,0,0,1-2.05-.81A3.3,3.3,0,0,1,118.54,40.06Zm5.28,40.88H119V48.78h4.87Z"/><path class="cls-4" d="M155.9,77.51a15.92,15.92,0,0,0,2.49-.19,16.15,16.15,0,0,0,1.91-.4v3.73a8.91,8.91,0,0,1-2.33.63,17.52,17.52,0,0,1-2.77.25q-9.33,0-9.33-9.83V52.56h-4.61V50.21l4.61-2,2.05-6.87h2.82v7.45h9.33v3.79h-9.33V71.49A6.51,6.51,0,0,0,152.11,76,4.8,4.8,0,0,0,155.9,77.51Z"/><path class="cls-4" d="M198.63,80.94l-1-4.58h-.23a13.54,13.54,0,0,1-4.8,4.09,14.63,14.63,0,0,1-6,1.07,10.74,10.74,0,0,1-7.5-2.47,9,9,0,0,1-2.71-7q0-9.74,15.58-10.21l5.46-.18v-2q0-3.79-1.63-5.59t-5.21-1.81a21.23,21.23,0,0,0-9.1,2.47L180.06,51a22.89,22.89,0,0,1,5.21-2,22.56,22.56,0,0,1,5.68-.73q5.75,0,8.53,2.55T202.24,59v22Zm-11-3.43A9.89,9.89,0,0,0,194.77,75a9.23,9.23,0,0,0,2.6-7V65.12l-4.87.21q-5.81.21-8.38,1.81a5.44,5.44,0,0,0-2.57,5,5,5,0,0,0,1.6,4A6.64,6.64,0,0,0,187.63,77.51Z"/><path class="cls-4" d="M227.82,80.94h-4.87V35.28h4.87Z"/></g></g></svg>