<svg xmlns="http://www.w3.org/2000/svg" xmlns:xlink="http://www.w3.org/1999/xlink" viewBox="0 0 252.16 83.01"><defs><style>.cls-1{fill:none;}.cls-2{clip-path:url(#clip-path);}.cls-3{fill:url(#linear-gradient);}</style><clipPath id="clip-path"><path class="cls-1" d="M222.77,10.17,210.66,26,198.55,10.17H174.68l24,31.34L171.32,77.22h6.23L205,41.51,184.7,15.12h11.41l14.55,19L229,10.17ZM250,5.79h-6.24l-27.4,35.71L236.61,67.9H225.21l-14.55-19L192.31,72.84h6.23l12.11-15.79,12.11,15.79h23.88L222.59,41.51Z"/></clipPath><linearGradient id="linear-gradient" x1="169.15" x2="252.16" y2="83.01" gradientUnits="userSpaceOnUse"><stop offset="0" stop-color="#00fcb6"/><stop offset="1" stop-color="#24bdff"/></linearGradient></defs><title>Asset 4</title><g id="Layer_2" data-name="Layer 2"><g id="Layer_1-2" data-name="Layer 1"><g class="cls-2"><rect class="cls-3" x="169.15" width="83.01" height="83.01"/></g><path d="M16.92,54.73h-.19a8.18,8.18,0,0,1-7.21,3.5,8.53,8.53,0,0,1-7-3.08Q0,52.07,0,46.39t2.52-8.83a8.47,8.47,0,0,1,7-3.14,8.36,8.36,0,0,1,7.17,3.4H17l-.15-1.66-.08-1.61V25.2h3.48V57.82H17.38Zm-7,.59q3.56,0,5.17-1.94t1.6-6.26v-.73q0-4.88-1.62-7T9.92,37.33a5.33,5.33,0,0,0-4.69,2.38,11.83,11.83,0,0,0-1.62,6.72q0,4.4,1.61,6.65A5.47,5.47,0,0,0,10,55.32Z"/><path d="M34.83,28.61a2.31,2.31,0,0,1,.59-1.75,2.17,2.17,0,0,1,2.91,0,2.27,2.27,0,0,1,.61,1.74,2.31,2.31,0,0,1-.61,1.75,2,2,0,0,1-1.45.58,2,2,0,0,1-1.47-.58A2.35,2.35,0,0,1,34.83,28.61Zm3.77,29.2H35.13v-23h3.48Z"/><path d="M72.32,34.84V37l-4.26.5a7.47,7.47,0,0,1,1.51,4.59,6.79,6.79,0,0,1-2.31,5.39,9.3,9.3,0,0,1-6.33,2A10.54,10.54,0,0,1,59,49.37q-2.22,1.17-2.22,3a1.5,1.5,0,0,0,.78,1.39,5.67,5.67,0,0,0,2.66.45h4.07A9.11,9.11,0,0,1,70,55.74a5.46,5.46,0,0,1,2,4.57A6.52,6.52,0,0,1,69,66.13q-3.06,2-8.93,2a12.2,12.2,0,0,1-6.95-1.68,5.42,5.42,0,0,1-2.44-4.74A5.32,5.32,0,0,1,52,58.09,6.83,6.83,0,0,1,55.76,56a3.64,3.64,0,0,1-1.48-1.24,3.27,3.27,0,0,1-.6-1.95,3.7,3.7,0,0,1,.67-2.2,7.05,7.05,0,0,1,2.12-1.82,6.2,6.2,0,0,1-2.9-2.49,7.33,7.33,0,0,1-1.12-4,7.43,7.43,0,0,1,2.26-5.82,9.24,9.24,0,0,1,6.42-2,11.67,11.67,0,0,1,3.25.42ZM54,61.67a3.12,3.12,0,0,0,1.57,2.83,8.68,8.68,0,0,0,4.51,1q4.38,0,6.49-1.31a4,4,0,0,0,2.11-3.55A2.81,2.81,0,0,0,67.52,58a9,9,0,0,0-4.34-.72H59a5.49,5.49,0,0,0-3.69,1.13A4,4,0,0,0,54,61.67ZM55.89,42.2a4.68,4.68,0,0,0,1.36,3.65A5.44,5.44,0,0,0,61,47.08q5.09,0,5.09-4.95Q66.14,37,61,37a5.11,5.11,0,0,0-3.77,1.32A5.32,5.32,0,0,0,55.89,42.2Z"/><path d="M84.67,28.61a2.31,2.31,0,0,1,.59-1.75,2.17,2.17,0,0,1,2.91,0,2.27,2.27,0,0,1,.61,1.74,2.31,2.31,0,0,1-.61,1.75,2,2,0,0,1-1.45.58,2,2,0,0,1-1.47-.58A2.35,2.35,0,0,1,84.67,28.61Zm3.77,29.2H85v-23h3.48Z"/><path d="M111.36,55.36a11.37,11.37,0,0,0,1.78-.14,11.53,11.53,0,0,0,1.36-.28v2.66a6.36,6.36,0,0,1-1.67.45,12.52,12.52,0,0,1-2,.18q-6.67,0-6.67-7V37.54H100.9V35.87l3.29-1.45,1.47-4.91h2v5.32h6.67v2.7h-6.67V51.07a4.65,4.65,0,0,0,1,3.19A3.43,3.43,0,0,0,111.36,55.36Z"/><path d="M141.88,57.82l-.69-3.27H141a9.67,9.67,0,0,1-3.43,2.92,10.45,10.45,0,0,1-4.27.77A7.67,7.67,0,0,1,128,56.47a6.42,6.42,0,0,1-1.94-5q0-7,11.13-7.3l3.9-.13V42.62a5.83,5.83,0,0,0-1.16-4,4.79,4.79,0,0,0-3.72-1.29,15.16,15.16,0,0,0-6.5,1.76l-1.07-2.66A16.35,16.35,0,0,1,132.33,35a16.12,16.12,0,0,1,4.06-.52q4.11,0,6.09,1.82t2,5.85V57.82ZM134,55.36a7.06,7.06,0,0,0,5.1-1.78,6.59,6.59,0,0,0,1.86-5V46.52l-3.48.15q-4.15.15-6,1.29a3.89,3.89,0,0,0-1.83,3.55,3.59,3.59,0,0,0,1.14,2.87A4.74,4.74,0,0,0,134,55.36Z"/><path d="M162.73,57.82h-3.48V25.2h3.48Z"/></g></g></svg>