<svg xmlns="http://www.w3.org/2000/svg" xmlns:xlink="http://www.w3.org/1999/xlink" viewBox="0 0 156.37 156.37"><defs><style>.cls-1{fill:none;}.cls-2{clip-path:url(#clip-path);}.cls-3{fill:url(#linear-gradient);}</style><clipPath id="clip-path"><path class="cls-1" d="M133.6,27.7q-2.34-2.57-4.92-4.93A75,75,0,0,0,22.77,128.67q2.35,2.57,4.93,4.92A75,75,0,0,0,133.6,27.7ZM78.18,146.27a67.86,67.86,0,0,1-46.26-18.18L70.21,78.18,41.92,41.3H57.85L78.19,67.8,98.53,41.3l5.3-6.91H95.11L78.19,56.45,61.26,34.39H27.9L61.5,78.18,27,123.09a68.05,68.05,0,0,1,97.4-94.81L86.16,78.18l28.29,36.88H98.52L78.18,88.57l-20.34,26.5L52.54,122h8.71L78.18,99.92,95.1,122h33.37L94.87,78.18l34.45-44.9a68.05,68.05,0,0,1-51.14,113Z"/></clipPath><linearGradient id="linear-gradient" x2="156.37" y2="156.37" gradientUnits="userSpaceOnUse"><stop offset="0" stop-color="#00fcb6"/><stop offset="1" stop-color="#24bdff"/></linearGradient></defs><title>Asset 5</title><g id="Layer_2" data-name="Layer 2"><g id="Layer_1-2" data-name="Layer 1"><g class="cls-2"><rect class="cls-3" width="156.37" height="156.37"/></g></g></g></svg>